<svg xmlns="http://www.w3.org/2000/svg" viewBox="0 0 363.87 279.15"><defs><style>.cls-1,.cls-4{fill:#666;}.cls-1{opacity:0.26;}.cls-2{fill:#fff;}.cls-2,.cls-3,.cls-4,.cls-5,.cls-6,.cls-7{stroke:#000;stroke-miterlimit:10;stroke-width:3px;}.cls-3{fill:#4d4d4d;}.cls-5{fill:#00a99d;}.cls-6{fill:#f7931e;}.cls-7{fill:#29abe2;}</style></defs><g id="Ebene_2" data-name="Ebene 2"><g id="Ebene_1-2" data-name="Ebene 1"><rect class="cls-1" x="4.68" y="20.93" width="359.19" height="258.22" rx="5.67"/><rect class="cls-2" x="1.5" y="1.5" width="346.82" height="263.89" rx="11.34"/><rect class="cls-3" x="1.5" y="1.5" width="346.82" height="58.91" rx="5.02"/><rect class="cls-4" x="1.9" y="60.41" width="346.42" height="204.98" rx="7.46"/><rect class="cls-5" x="12.68" y="90.19" width="124.75" height="33.74" rx="2.83"/><rect class="cls-6" x="12.68" y="146.03" width="28.75" height="33.74" rx="2.83"/><rect class="cls-6" x="89.9" y="201.88" width="134.49" height="33.74" rx="2.83"/><rect class="cls-6" x="50.97" y="146.03" width="28.75" height="33.74" rx="2.83"/><rect class="cls-5" x="89.9" y="146.03" width="61.78" height="33.74" rx="2.83"/><rect class="cls-5" x="10.53" y="201.88" width="69.18" height="33.74" rx="2.83"/><rect class="cls-7" x="151.68" y="90.19" width="174.36" height="33.74" rx="2.83"/><rect class="cls-6" x="162.82" y="146.03" width="28.75" height="33.74" rx="2.83"/></g></g></svg>