<svg xmlns="http://www.w3.org/2000/svg" viewBox="0 0 363.87 279.15"><defs><style>.cls-1{fill:#666;opacity:0.26;}.cls-2{fill:#00a99d;}.cls-2,.cls-3,.cls-4,.cls-5,.cls-6,.cls-7{stroke:#000;stroke-miterlimit:10;}.cls-2,.cls-3{stroke-width:3px;}.cls-3,.cls-5{fill:#e6e6e6;}.cls-6{fill:#f7931e;}.cls-7{fill:#ccc;stroke-width:2px;}.cls-8{fill:#29abe2;}</style></defs><g id="Ebene_2" data-name="Ebene 2"><g id="Ebene_1-2" data-name="Ebene 1"><rect class="cls-1" x="4.68" y="20.93" width="359.19" height="258.22" rx="5.67"/><rect class="cls-2" x="1.5" y="1.5" width="346.82" height="263.89" rx="11.34"/><rect class="cls-3" x="18.29" y="35.68" width="309.93" height="191.99" rx="2.83"/><rect class="cls-3" x="57.25" y="108.56" width="37.83" height="54.54" rx="2.83"/><rect class="cls-3" x="149.86" y="83.09" width="37.83" height="54.54" rx="2.83"/><rect class="cls-3" x="234.42" y="135.42" width="37.83" height="54.54" rx="2.83"/><rect class="cls-4" x="75.74" y="94.57" width="0.85" height="12.47"/><rect class="cls-4" x="251.92" y="101.66" width="0.85" height="32.98"/><rect class="cls-4" x="168.2" y="54.44" width="0.85" height="27.65"/><rect class="cls-4" x="75.96" y="163" width="0.85" height="42.52"/><rect class="cls-4" x="252.7" y="191.07" width="0.85" height="11.76" transform="translate(506.26 393.89) rotate(180)"/><rect class="cls-4" x="168.2" y="138.62" width="0.85" height="12.47"/><rect class="cls-5" x="67.43" y="93.4" width="17.01" height="1.02"/><rect class="cls-5" x="67.53" y="206.07" width="17.01" height="1.02"/><rect class="cls-5" x="160.29" y="151.62" width="17.01" height="1.02"/><rect class="cls-5" x="159.95" y="53.02" width="17.01" height="1.02"/><rect class="cls-5" x="243.75" y="100.08" width="17.01" height="1.02"/><rect class="cls-5" x="244.58" y="203.16" width="17.01" height="1.02"/><rect class="cls-5" x="235.02" y="177.06" width="36.85"/><rect class="cls-5" x="150.53" y="118.04" width="36.85"/><rect class="cls-5" x="57.75" y="125.19" width="36.85"/><circle class="cls-6" cx="76.14" cy="76.27" r="6.56"/><circle class="cls-6" cx="168.54" cy="168.08" r="6.56"/><circle class="cls-6" cx="168.54" cy="189.21" r="6.56"/><rect class="cls-7" x="225.72" y="44.06" width="92.87" height="41.18" rx="2.83"/><rect class="cls-8" x="231.46" y="52.38" width="80.7" height="9.28" rx="2.83"/><rect class="cls-8" x="231.46" y="68.6" width="80.7" height="9.28" rx="2.83"/></g></g></svg>